<svg id="Layer_1" data-name="Layer 1" xmlns="http://www.w3.org/2000/svg" viewBox="0 0 500 500"><defs><style>.cls-1{fill:#e66457;}.cls-2{fill:#ddac8a;}.cls-3{fill:#e0b192;}.cls-4{fill:#e6e7e8;}</style></defs><title>bend</title><polygon class="cls-1" points="214.83 -15.05 216.13 28.66 216.13 53.64 212.47 75.61 203.15 88.03 194.07 112.03 191.15 132.15 186.61 161.67 173.42 196.06 273.55 219.09 290.07 201.1 302.1 189.89 314.18 162.32 321.11 127.27 319.82 122.9 321.56 110.41 324.81 72.46 326.75 -15.05 214.83 -15.05"/><path class="cls-1" d="M313.32,334.1l-1-2a9.2,9.2,0,0,1-.34-6.95l1.56-4.48a9.13,9.13,0,0,0,.51-3.51l0-.65a9.23,9.23,0,0,0-7.53-8.61l-1.9-.36a9.24,9.24,0,0,0-6.66,1.3L292.92,312a8.7,8.7,0,0,1-1.86.92l-14.44,5.17a9.25,9.25,0,0,0-1.68.8l-4.66,2.84v-104l10.49-6a9.43,9.43,0,0,0,1.91-1.47l5-5a9.23,9.23,0,0,0,2.36-4l3.39-12.09a9.07,9.07,0,0,0,.35-2.38l.2-16a9.13,9.13,0,0,0-1-4.28l-8.14-16.09a9.13,9.13,0,0,0-3-3.41L265.1,135.43a9.22,9.22,0,0,0-6.07-1.61l-22.49,2a9.3,9.3,0,0,0-3.19.88l-16.94,8.15a9.32,9.32,0,0,0-2.28,1.56l-19.52,18.16a8.27,8.27,0,0,0-.71.74c-2.46,2.86-17.69,20.59-17.92,21.27s-2.43,9-3.17,11.77a9.42,9.42,0,0,1-.64,1.7l-6.83,13.88a10.23,10.23,0,0,0-.52,1.29l-3.92,12.38a9.5,9.5,0,0,0-.42,3.18l.53,12.45a9.24,9.24,0,0,1-1.75,5.79l-5.15,7.13a9.16,9.16,0,0,0-1.61,3.8l-1.5,8.5a9.24,9.24,0,0,0,.09,3.63l1.26,5.61a9.31,9.31,0,0,1-.14,4.6l-.78,2.67a9.19,9.19,0,0,0,0,5.17l1.17,4a9.27,9.27,0,0,0,1.59,3.09l6,7.61,8.22,10.38a9.24,9.24,0,0,1,2,5.73v.33a9.11,9.11,0,0,0,.87,3.91l4.48,9.58L182,346.93a8.65,8.65,0,0,1,.59,1.45l2.74,8.82a9.62,9.62,0,0,0,1.27,2.57l5.47,7.76a9.12,9.12,0,0,0,3.13,2.79l4.92,2.68a9.13,9.13,0,0,0,2.57.94l8.27,1.69a9.2,9.2,0,0,1,4.09,2l1.33,1.11a9.22,9.22,0,0,0,6.82,2.12l7-.68a9.35,9.35,0,0,1,3.45.32l8.11,2.35a9.2,9.2,0,0,0,2.33.36l14.35.36a9.24,9.24,0,0,1,6.29,2.7l.25.25a9.17,9.17,0,0,0,3.56,2.21l8.77,3a9.24,9.24,0,0,0,4.27.4l1.87-.27a9.22,9.22,0,0,0,6.7-4.55l1.34-2.34a9.22,9.22,0,0,0,.49-8.17l-.64-1.51a9.22,9.22,0,0,1,1.47-9.56h0a8.5,8.5,0,0,1,1-1l10.42-9,7.1-6.76a9.23,9.23,0,0,0,2.87-6.68V338A9.2,9.2,0,0,0,313.32,334.1Zm-74.8-12.3a9.37,9.37,0,0,1-1.66-2.1L231,309.46a9.23,9.23,0,0,1,0-9.27l9-15.35a8.8,8.8,0,0,0,.93-2.19l10.68-38.31v86.85a9.17,9.17,0,0,1-5.81-2.51Z"/><polygon class="cls-2" points="202.03 68.79 207.22 37.64 207.22 12.66 205.93 -1.05 317.85 -1.05 315.9 56.46 312.65 94.42 310.43 110.4 202.03 68.79"/><polygon class="cls-3" points="164.51 180.07 177.7 145.67 182.24 116.15 185.16 96.04 194.25 72.03 205.93 56.46 223.53 43.16 242.72 43.16 269.51 52.57 284.43 66.84 305.27 87.93 312.21 111.27 305.27 146.32 293.19 173.9 281.16 185.1 264.64 203.09 164.51 180.07"/><path class="cls-2" d="M231.11,268.85l-9,15.34a9.23,9.23,0,0,0,0,9.27L228,303.7a9.15,9.15,0,0,0,1.66,2.1l7.28,6.89A9.22,9.22,0,0,0,248,313.87l18-10.94a8.91,8.91,0,0,1,1.68-.8L282.15,297A9.16,9.16,0,0,0,284,296l5.05-3.23a9.21,9.21,0,0,1,6.67-1.3l1.9.35a9.22,9.22,0,0,1,7.52,8.61l0,.65a9.29,9.29,0,0,1-.5,3.51l-1.57,4.48a9.2,9.2,0,0,0,.35,6.95l1,2a9.29,9.29,0,0,1,.87,3.91v4.21a9.25,9.25,0,0,1-2.87,6.69l-7.11,6.76-10.42,9a9.26,9.26,0,0,0-1,1h0a9.22,9.22,0,0,0-1.47,9.57l.63,1.51a9.2,9.2,0,0,1-.49,8.16l-1.33,2.34a9.28,9.28,0,0,1-6.71,4.56l-1.86.26a9.28,9.28,0,0,1-4.28-.39l-8.77-3a9.25,9.25,0,0,1-3.55-2.21l-.26-.26a9.23,9.23,0,0,0-6.29-2.7l-14.35-.36a9.12,9.12,0,0,1-2.32-.36l-8.12-2.34a8.91,8.91,0,0,0-3.44-.32l-7,.67a9.19,9.19,0,0,1-6.82-2.12l-1.32-1.11a9.18,9.18,0,0,0-4.09-2L193.74,358a9.33,9.33,0,0,1-2.57-.94l-4.93-2.69a9.31,9.31,0,0,1-3.13-2.79l-5.46-7.76a8.81,8.81,0,0,1-1.27-2.57l-2.74-8.81a10.24,10.24,0,0,0-.59-1.45l-6.22-12.2-4.48-9.57a9.3,9.3,0,0,1-.87-3.92v-.33a9.23,9.23,0,0,0-2-5.73l-8.23-10.37-6-7.61a9.27,9.27,0,0,1-1.59-3.09l-1.17-4a9.22,9.22,0,0,1,0-5.18l.77-2.67a9.19,9.19,0,0,0,.14-4.6l-1.26-5.61a9.05,9.05,0,0,1-.08-3.63l1.5-8.49a9.15,9.15,0,0,1,1.61-3.81l5.15-7.12a9.26,9.26,0,0,0,1.74-5.8l-.52-12.45a9,9,0,0,1,.42-3.17l3.92-12.39a8.37,8.37,0,0,1,.52-1.28L163.27,184a8.46,8.46,0,0,0,.63-1.7c.74-2.76,3-11.16,3.18-11.77S182.53,152.16,185,149.3a9.81,9.81,0,0,1,.71-.73l19.53-18.17a9.1,9.1,0,0,1,2.28-1.55l16.93-8.16a9.36,9.36,0,0,1,3.19-.88l22.5-2a9.25,9.25,0,0,1,6.07,1.61L272.94,131a9.28,9.28,0,0,1,3,3.42l8.14,16.09a9.19,9.19,0,0,1,1,4.28l-.2,16a9.18,9.18,0,0,1-.34,2.38l-3.4,12.08a9.27,9.27,0,0,1-2.36,4l-5,5a9.15,9.15,0,0,1-1.92,1.47l-12,6.93a9.45,9.45,0,0,0-2.25,1.83l-10.47,11.65a9.21,9.21,0,0,0-2,3.69L232,266.65A9.69,9.69,0,0,1,231.11,268.85Z"/><rect x="242.72" y="164.32" width="18.65" height="180.05" rx="6.02"/><path class="cls-4" d="M138.58,397.63c.43,4.81.8,9.62,1.18,14.43q1.61,20.42,3.18,40.82a15.47,15.47,0,0,0,1.15,5.78l2.2,1.88a15.12,15.12,0,0,0,2.8.45,6.47,6.47,0,0,0,5-2.54c3.42-4.06,6.88-8.08,10.33-12.11l1.41-1.66a14.44,14.44,0,0,1,3.31,2.86,104.07,104.07,0,0,0,13.35,11.36c2.19,1.55,4.4,3.08,6.63,4.57a75.41,75.41,0,0,0,7.11,4.16,118.53,118.53,0,0,0,20.38,8.7,116,116,0,0,0,26.3,5.13,108.68,108.68,0,0,0,17.95.1c4.86-.42,9.72-1.11,14.51-2a107.24,107.24,0,0,0,27.55-9.14,100.81,100.81,0,0,0,12.61-7c2.21-1.51,4.41-3.06,6.59-4.62a103.43,103.43,0,0,0,13.26-11.47,14.64,14.64,0,0,1,3.29-2.88l1.42,1.65c3.48,4,7,8,10.42,12a6.51,6.51,0,0,0,5,2.5,16,16,0,0,0,2.79-.47l2.19-1.9a15.63,15.63,0,0,0,1.1-5.78Q363,432,364.45,411.61c.34-4.81.67-9.63,1.07-14.44a6.46,6.46,0,0,0-1.42-5,5.88,5.88,0,0,0-4.25-2.23c-9.07-.66-18.14-1.41-27.21-2.09q-14.94-1.12-29.91-2.2a15.2,15.2,0,0,0-1.65-.09c-2.6.13-4.67,1.14-5.76,3.65a5.82,5.82,0,0,0,1.12,6.52q6,6.9,11.92,13.76l1.61,1.86-1.76,2.07a69.4,69.4,0,0,1-11.75,10.84h0c-4.93,3.65-10.42,6.1-16.13,8.45a77,77,0,0,1-16.43,4.75,73.72,73.72,0,0,1-17.31.84A74.72,74.72,0,0,1,222,432.38a69.18,69.18,0,0,1-13.26-7.53A71.68,71.68,0,0,1,196,413.43l-1.77-2.06,1.59-1.87q5.91-6.92,11.81-13.85a5.83,5.83,0,0,0,1.07-6.54c-1.1-2.49-3.19-3.49-5.79-3.59a11.51,11.51,0,0,0-1.65.1q-14.94,1.2-29.89,2.42c-9.06.75-18.12,1.57-27.19,2.3a5.9,5.9,0,0,0-4.23,2.27A6.43,6.43,0,0,0,138.58,397.63Z"/></svg>