<svg id="Layer_1" data-name="Layer 1" xmlns="http://www.w3.org/2000/svg" viewBox="0 0 500 500"><defs><style>.cls-1{fill:#e66457;}.cls-2{fill:#e6e7e8;}.cls-3{fill:#2380cc;}</style></defs><title>careful</title><path class="cls-1" d="M192.66,311.41H259V514.12h-65.7C191.9,508.49,191.3,327.78,192.66,311.41Zm13.2,7.14c-3.42-1-5.28-.23-5.73,2.58a37.84,37.84,0,0,0-.2,6q0,88,0,176v7.77h6.35c.15-1.63.37-2.85.37-4.07q0-91,0-182A49.31,49.31,0,0,0,205.86,318.55Zm40.75-.21a4.85,4.85,0,0,0-.55.6,6.58,6.58,0,0,0-.73,1.29,4.61,4.61,0,0,0-.32,1.46c-.07,1.26-.09,2.52-.09,3.78q.14,92.13.27,184.28a1.23,1.23,0,0,0,.27.67,3.92,3.92,0,0,0,.72.58h5.21c.1-2.06.25-3.76.25-5.47q0-89.88,0-179.77a26.15,26.15,0,0,0-.16-4.52C251,318.49,249.33,317.41,246.61,318.34ZM221.36,511c.13-2.1.32-3.82.32-5.54q0-89.87,0-179.73a19.27,19.27,0,0,0-.43-5.22c-.67-2.36-2.39-3.08-5.59-1.48-.19,2.38-.63,5.28-.63,8.18q-.06,88,0,176c0,2,0,4,.12,6a8.09,8.09,0,0,0,1,2.2ZM235.5,318.66c-3-1.27-4.81-.44-5.32,2.34a39.1,39.1,0,0,0-.29,6.77q0,87.6,0,175.2c0,2.26.11,4.52.26,6.77,0,.41.53.78.89,1.27h5.51c0-63.23,0-126.1,0-189A12.26,12.26,0,0,0,235.5,318.66Z"/><path class="cls-1" d="M255.67,250.18c10,0,20.1,0,30.16,0,4.06,0,7.15,2.14,9.8,5,5.58,6,6.19,16.7,1.35,23.06-4.71,6.2-15.59,8.38-22.68,4.5-2.52-1.39-4.41-3.31-4.74-6.39-.28-2.66.21-3.75,3.73-7.17.57,2.29,1.08,4.32,1.57,6.32,4,2.75,7.78,2.36,11.36-.15,3.3-2.31,3.84-5.91,3-9.5a10.61,10.61,0,0,0-8.78-8.36c-9.52-1.69-17.36,1.22-23.14,9.21-4.83,6.68-7.07,14.36-8.71,22.28-.25,1.22-.4,2.45-.58,3.58-5.38,1.43-33,1.81-44,.61-.81-3.5-1.23-7.28-2.57-10.71-2.18-5.58-4.35-11.33-7.63-16.27-5-7.63-12.82-10.13-21.82-8.85a11,11,0,0,0-9.38,7.73c-1.18,3.46-.78,7.09,2.24,9.74,3.37,3,7.17,3.2,11.59,1.18.53-2,1.1-4.1,1.73-6.42.65.19,1.59.17,1.89.6,3.33,4.71,2.49,9.3-2.13,12.18-7.78,4.87-20.43,1.78-24.58-6-4.68-8.77-1.18-20.71,7.41-24.79a14.33,14.33,0,0,1,5.8-1.32c9.8-.14,19.61-.06,29.5-.06,8.89,10.19,12.05,22,11.45,35,5.23,1.56,26.28,1.89,36.43.53C243.64,272.93,246.24,260.89,255.67,250.18Z"/><path class="cls-1" d="M295.47,235.05H156.28c-1.73-5.11-1.76-9.21,0-13.67h139C297.18,225.67,296.91,229.77,295.47,235.05Z"/><path class="cls-1" d="M201.78,250.49h48.5c-6.08,10-10.38,20.05-9.33,31.8-5.1,1.53-10.08.61-15,.78-4.74.16-9.5,0-14.37,0-.93-5.86-1.27-11.62-2.87-17C207.2,260.92,204.36,256.12,201.78,250.49Z"/><path class="cls-1" d="M164,246.38V240a6.3,6.3,0,0,1,2.06-.85q14-.12,28-.11h93.4l.52,6.49C286.05,247.23,180.54,247.75,164,246.38Z"/><path class="cls-1" d="M264.79,297.76V307c-8.6,1-17.08.36-25.52.46-8.81.12-17.62,0-26.44,0H187v-9.52c6.37-1.5,12.89-.55,19.3-.72s13.09,0,19.64,0c6.29,0,12.59-.08,18.88,0C251.26,297.3,257.78,296.71,264.79,297.76Z"/><path class="cls-1" d="M277.5,273.1v-7.28c-4.71-1.19-8.08.27-10,3.89-2.56,4.88-1.8,9.72,1.7,13.84l-10.55,9.78h-7.12c1.08-9.51,3.43-18.07,9.11-25.38,3.9-5,9.11-7.93,15.63-7.51a15.89,15.89,0,0,1,6.38,1.86,6.58,6.58,0,0,1,3.27,7.7C284.92,272.85,282.89,273.66,277.5,273.1Z"/><path class="cls-1" d="M174.05,265.71v7.16c-5,1-7.07.29-8.3-2.6s.29-6.45,3.51-8.28c3.72-2.1,7.71-2.12,11.7-.94,5.61,1.66,9.56,5.42,12.4,10.38a54.55,54.55,0,0,1,6.7,21.89l-6.86.43-10.57-10.12c2.6-4,4.76-9,1.29-14.31C181.82,266.12,178.74,264.82,174.05,265.71Z"/><path class="cls-1" d="M328.71,78.85l-3.6,5,31.62,32.25,5.14-3.41Z"/><path class="cls-1" d="M288.45,112.62c1.1.1,2.21,0,3.3.11,6.84.46,11.29,4.69,12.07,11.51.17,1.45.15,2.92.25,4.39a8.11,8.11,0,0,0,3.79,6.34,9.26,9.26,0,0,0,6,1.35,12.84,12.84,0,0,1,13.4,13.73,16.16,16.16,0,0,0,0,2.2,8.22,8.22,0,0,0,7.53,7.67c3,.32,6,.69,9.12,1.05a30.85,30.85,0,0,0,3-15.51,22.42,22.42,0,0,0-6.42-14.78c-10.35-10.43-20.58-21-30.9-31.44a17.45,17.45,0,0,0-3.72-2.91c-8.59-4.92-17.3-4.06-25.92-.58.32,3.22.62,6.23.89,9.24A8.24,8.24,0,0,0,288.45,112.62Z"/><path class="cls-1" d="M276.4,123.8c1.1.06,2.21,0,3.3.15,6.5.6,11.07,4.56,11.89,11.35.18,1.46.27,2.93.37,4.39.35,4.9,3.46,8,8.41,8.47a46.69,46.69,0,0,1,4.74.49,12.05,12.05,0,0,1,8.4,5.27c1.92,3,2.2,6.11,2.32,9.45.22,5.53,3.53,9.08,8.89,9.31a22,22,0,0,1,9.56,2.14,26.55,26.55,0,0,0,7.31-10.12c-2.48-.21-4.5-.41-6.53-.56-7.1-.51-11.73-5.25-12-12.35,0-1,0-2,0-2.94-.16-4.72-2.95-7.75-7.66-8.24-1.34-.14-2.7,0-4-.16a12.16,12.16,0,0,1-11.44-11.77c-.06-.85,0-1.71,0-2.57-.13-6.12-2.93-9-9-9.22a28.9,28.9,0,0,1-4.73-.53,11.28,11.28,0,0,1-9.22-9.69c-.24-1.56-.19-3.17-.28-4.76-.07-1.3,0-2.64-1.4-4l-9.49,6.8a20.84,20.84,0,0,1,2.14,10.12C267.78,120,272.39,123.62,276.4,123.8Z"/><path class="cls-1" d="M369.52,113.56a.74.74,0,0,0,.34.07c.12,0,.25,0,.69,0l1.48-1.92L329.71,68.52l-2.07,2a6.81,6.81,0,0,0,.69,1.23q19.88,20.32,39.78,40.62A13.17,13.17,0,0,0,369.52,113.56Z"/><path class="cls-1" d="M352.59,120.69a15.4,15.4,0,0,0,1.07-1.31c-3.15-4.17-29.79-31-32.06-32.38l-2.45,2.4c3.5,4.45,29.66,30.83,32.1,32.38C351.67,121.44,352.17,121.1,352.59,120.69Z"/><path class="cls-1" d="M312.4,96l31.89,32.52,3.1-3c-3-4-29.71-31-32-32.36Z"/><path class="cls-1" d="M230,161.28l47.66,48.6L280,209l-49.41-50.39C230.34,159.71,230.16,160.5,230,161.28Z"/><path class="cls-1" d="M327.3,177.05c-1.46-.2-2.93-.27-4.39-.42-6.62-.66-10.59-5.87-11-11.77-.11-1.34-.2-2.68-.35-4-.53-5-3.57-7.92-8.57-8.37-1.59-.15-3.18-.22-4.74-.47-6.91-1.1-10.06-6.43-10.46-11.94-.08-1.1,0-2.2-.07-3.3-.15-4.73-4.1-8.56-8-8.67-1.47,0-2.94-.18-4.39-.36-5.16-.65-9-3.19-10.75-8.19-.73-2.14-.66-4.57-1-6.86-.21-1.52-.46-3-.78-5a24.75,24.75,0,0,0-2.38,2c-2.1,2.36-4.15,4.78-6.28,7.25a22.52,22.52,0,0,1,1.5,3.8c.47,2.52.7,5.08,1,7.62a8.2,8.2,0,0,0,8.08,7.53c1.22.08,2.45,0,3.66.2,7.27,1,11.34,5.51,11.54,12.81,0,.86,0,1.72,0,2.58.38,5,3.45,8.05,8.47,8.44,1.22.1,2.46,0,3.67.14,4.61.48,8.28,2.6,10,7a27.61,27.61,0,0,1,1.38,7.88c.37,5.22,2.75,8.08,8,8.9,1.81.29,3.69.21,5.47.61a50.85,50.85,0,0,1,5.51,1.92c3-2.7,6.64-4.53,9.07-8.42C329.86,177.54,328.59,177.23,327.3,177.05Z"/><path class="cls-1" d="M221.91,182.23a.38.38,0,0,0-.33,0c-.11,0-.18.16-.41.39L256,218.08l.57-.51c-.44-.55-.83-1.15-1.32-1.65Q238.58,199.06,221.91,182.23Z"/><path class="cls-1" d="M225.93,180.17l32.91,33.56a57.64,57.64,0,0,0,14-2.74l-44.13-45C226.73,170.93,225.59,177,225.93,180.17Z"/><path class="cls-1" d="M311.45,187.94c-5.45,0-11.71-5.43-12-11.39-.06-1.22-.1-2.44-.15-3.67-.17-4.79-2.95-8-7.71-8.73a25.65,25.65,0,0,0-4-.36c-5.8,0-11.57-5.79-11.54-11.65a30.2,30.2,0,0,0-.42-5.11,8.58,8.58,0,0,0-7.59-6.87c-1-.09-2-.11-2.94-.11-6.84,0-13-6.18-12.75-13a37.74,37.74,0,0,0-.75-6.28c-4.63,3.13-16.87,24.51-19.16,33.39l52.24,53.28c12-3.83,30-14.07,33.78-18.61A52.6,52.6,0,0,0,311.45,187.94Z"/><path class="cls-2" d="M182.3,297.6h66.33V500.31h-65.7C181.54,494.68,180.94,314,182.3,297.6Zm13.2,7.15c-3.42-1-5.28-.24-5.73,2.58a37.8,37.8,0,0,0-.2,6V497.13h6.34c.15-1.64.37-2.86.37-4.08q0-91,0-182A48.87,48.87,0,0,0,195.5,304.75Zm40.75-.21a4.19,4.19,0,0,0-.55.59,7.88,7.88,0,0,0-.73,1.29,4.73,4.73,0,0,0-.32,1.47c-.07,1.26-.09,2.51-.08,3.77q.12,92.14.26,184.28a1.26,1.26,0,0,0,.27.68,4.53,4.53,0,0,0,.73.57H241c.1-2.05.25-3.76.25-5.46q0-89.89,0-179.78a26.07,26.07,0,0,0-.17-4.51C240.63,304.68,239,303.61,236.25,304.54ZM211,497.14c.13-2.1.32-3.81.32-5.53q0-89.86,0-179.73a19.35,19.35,0,0,0-.44-5.23c-.67-2.36-2.39-3.08-5.59-1.47-.19,2.38-.63,5.28-.63,8.18q-.06,88,0,176c0,2,0,4,.12,6a7.74,7.74,0,0,0,1,2.2Zm14.15-192.28c-3-1.28-4.82-.45-5.33,2.34a38.06,38.06,0,0,0-.28,6.76q0,87.6,0,175.2c0,2.26.1,4.53.26,6.78,0,.4.52.77.88,1.27h5.51c0-63.24,0-126.1,0-189A12,12,0,0,0,225.15,304.86Z"/><path class="cls-2" d="M245.31,236.38c10,0,20.1,0,30.16,0,4.06,0,7.15,2.15,9.8,5,5.58,6,6.2,16.7,1.36,23.06-4.72,6.19-15.6,8.38-22.69,4.49-2.52-1.38-4.41-3.3-4.74-6.38-.28-2.67.21-3.76,3.73-7.18.57,2.29,1.08,4.32,1.58,6.32,4,2.75,7.78,2.37,11.35-.14,3.3-2.31,3.84-5.92,3-9.5a10.61,10.61,0,0,0-8.78-8.37c-9.51-1.68-17.36,1.22-23.14,9.21-4.83,6.69-7.07,14.37-8.71,22.29-.25,1.21-.4,2.44-.58,3.57-5.38,1.43-33,1.81-44,.61-.8-3.49-1.23-7.28-2.57-10.71-2.18-5.58-4.35-11.32-7.62-16.27-5.06-7.62-12.83-10.13-21.83-8.84a11,11,0,0,0-9.38,7.73c-1.18,3.46-.77,7.09,2.24,9.74,3.37,3,7.17,3.2,11.59,1.17.54-2,1.11-4.1,1.73-6.41.65.19,1.59.17,1.9.6,3.32,4.71,2.48,9.29-2.13,12.18-7.78,4.86-20.44,1.77-24.59-6-4.68-8.77-1.18-20.72,7.41-24.8a14.5,14.5,0,0,1,5.8-1.32c9.81-.13,19.62-.06,29.51-.06,8.88,10.19,12,22,11.45,35,5.23,1.56,26.27,1.88,36.42.52C233.29,259.13,235.88,247.09,245.31,236.38Z"/><path class="cls-2" d="M285.11,221.24H145.92c-1.73-5.11-1.76-9.21,0-13.67h139C286.82,211.87,286.56,216,285.11,221.24Z"/><path class="cls-2" d="M191.43,236.68h48.49c-6.07,10-10.37,20.05-9.32,31.8-5.11,1.53-10.09.61-15,.78s-9.49,0-14.36,0c-.94-5.85-1.27-11.61-2.87-17C196.85,247.11,194,242.32,191.43,236.68Z"/><path class="cls-2" d="M153.59,232.58v-6.42a6.53,6.53,0,0,1,2.07-.86c9.32-.08,18.64-.1,28-.11H277l.53,6.48C275.69,233.42,170.18,233.94,153.59,232.58Z"/><path class="cls-2" d="M254.44,284v9.2c-8.61,1-17.09.36-25.53.47-8.81.11-17.62,0-26.43,0H176.61v-9.52c6.37-1.49,12.88-.55,19.3-.71s13.09,0,19.63,0c6.3,0,12.59-.08,18.89,0C240.9,283.5,247.43,282.9,254.44,284Z"/><path class="cls-2" d="M267.15,259.3V252c-4.71-1.19-8.09.27-10,3.88-2.56,4.88-1.8,9.73,1.7,13.84l-10.55,9.79h-7.12c1.08-9.51,3.43-18.07,9.11-25.38,3.91-5,9.11-7.93,15.63-7.52a16,16,0,0,1,6.39,1.87,6.58,6.58,0,0,1,3.26,7.7C274.56,259,272.53,259.85,267.15,259.3Z"/><path class="cls-2" d="M163.69,251.91v7.16c-5,1-7.07.29-8.29-2.61s.28-6.45,3.51-8.27c3.71-2.11,7.7-2.12,11.69-.95,5.61,1.66,9.57,5.43,12.41,10.39a54.49,54.49,0,0,1,6.69,21.89l-6.85.43-10.58-10.12c2.6-4,4.77-9,1.29-14.32C171.47,252.32,168.39,251,163.69,251.91Z"/><path class="cls-3" d="M318.35,65.05l-3.6,5,31.63,32.25,5.13-3.41Z"/><path class="cls-3" d="M278.09,98.81c1.1.1,2.21,0,3.31.11,6.83.46,11.28,4.69,12.06,11.51.17,1.45.16,2.93.26,4.39a8.13,8.13,0,0,0,3.78,6.35,9.32,9.32,0,0,0,6,1.34,12.85,12.85,0,0,1,13.4,13.74,16.16,16.16,0,0,0,0,2.2,8.22,8.22,0,0,0,7.53,7.66c3,.32,6,.69,9.12,1.06a30.88,30.88,0,0,0,3-15.52,22.44,22.44,0,0,0-6.42-14.78c-10.35-10.43-20.58-21-30.9-31.43a17.69,17.69,0,0,0-3.71-2.92c-8.6-4.91-17.31-4.06-25.92-.58.31,3.22.62,6.23.89,9.25A8.2,8.2,0,0,0,278.09,98.81Z"/><path class="cls-3" d="M266,110c1.11,0,2.21,0,3.31.15,6.5.6,11.07,4.56,11.89,11.35.17,1.45.26,2.92.37,4.39.35,4.89,3.45,8,8.4,8.46a46.4,46.4,0,0,1,4.74.5c3.46.67,6.36,2.11,8.4,5.26,1.93,3,2.2,6.11,2.33,9.45.21,5.53,3.52,9.09,8.88,9.32a22.1,22.1,0,0,1,9.56,2.13,26.34,26.34,0,0,0,7.31-10.11c-2.47-.21-4.5-.42-6.53-.56-7.1-.51-11.73-5.25-12-12.35,0-1,0-2,0-2.94-.16-4.72-2.95-7.75-7.66-8.24-1.34-.14-2.7,0-4-.16a12.17,12.17,0,0,1-11.44-11.77c-.06-.86,0-1.72,0-2.57-.13-6.13-2.93-9-9-9.23a28.65,28.65,0,0,1-4.73-.52,11.29,11.29,0,0,1-9.22-9.7,44.2,44.2,0,0,1-.28-4.75c-.07-1.31,0-2.65-1.41-4L255.38,91a20.88,20.88,0,0,1,2.14,10.13C257.42,106.22,262,109.81,266,110Z"/><path class="cls-3" d="M359.16,99.75c.08.07.23.06.35.07s.24,0,.69,0c.41-.55,1-1.27,1.47-1.93L319.35,54.72l-2.06,2A6.5,6.5,0,0,0,318,58q19.88,20.33,39.78,40.62A13.09,13.09,0,0,0,359.16,99.75Z"/><path class="cls-3" d="M342.23,106.88c.41-.41.74-.9,1.07-1.3-3.15-4.18-29.79-31-32.06-32.38l-2.45,2.4c3.5,4.44,29.67,30.83,32.11,32.38A16.11,16.11,0,0,0,342.23,106.88Z"/><path class="cls-3" d="M302.05,82.21l31.88,32.52,3.11-3c-3-4-29.72-31-32.05-32.36Z"/><path class="cls-3" d="M219.63,147.47l47.66,48.61,2.35-.92-49.4-50.38C220,145.9,219.81,146.7,219.63,147.47Z"/><path class="cls-3" d="M316.94,163.24c-1.45-.2-2.92-.27-4.38-.41-6.63-.66-10.6-5.88-11-11.77-.1-1.35-.2-2.69-.34-4-.54-5-3.58-7.92-8.58-8.37-1.58-.14-3.18-.21-4.74-.46-6.91-1.1-10.06-6.44-10.46-11.94-.07-1.1,0-2.21-.07-3.31-.15-4.72-4.1-8.55-8-8.66a43.07,43.07,0,0,1-4.39-.37c-5.15-.65-9-3.18-10.74-8.18-.74-2.15-.67-4.57-1-6.87-.21-1.52-.46-3-.77-5a23.94,23.94,0,0,0-2.38,2c-2.11,2.37-4.16,4.78-6.29,7.25a22.26,22.26,0,0,1,1.5,3.81c.47,2.51.7,5.08,1.05,7.62a8.19,8.19,0,0,0,8.07,7.53c1.22.07,2.46,0,3.66.19,7.27,1,11.34,5.52,11.54,12.82,0,.86,0,1.72,0,2.57.38,5,3.45,8,8.47,8.45,1.22.09,2.46,0,3.67.13,4.61.48,8.28,2.61,10,7a27.26,27.26,0,0,1,1.38,7.87c.37,5.22,2.76,8.08,8,8.91,1.81.29,3.7.2,5.47.61a53,53,0,0,1,5.51,1.91c3-2.69,6.64-4.53,9.08-8.41C319.51,163.74,318.23,163.42,316.94,163.24Z"/><path class="cls-3" d="M211.55,168.43a.41.41,0,0,0-.33,0,2.94,2.94,0,0,0-.41.39l34.8,35.49.57-.52a17.53,17.53,0,0,0-1.32-1.64Q228.23,185.26,211.55,168.43Z"/><path class="cls-3" d="M215.57,166.36l32.91,33.56a57.17,57.17,0,0,0,14-2.74l-44.13-45C216.38,157.13,215.23,163.21,215.57,166.36Z"/><path class="cls-3" d="M301.09,174.13c-5.45,0-11.71-5.43-12-11.38-.05-1.23-.1-2.45-.14-3.67-.18-4.8-2.95-8-7.72-8.73a25.65,25.65,0,0,0-4-.36c-5.8,0-11.57-5.79-11.54-11.65a28.31,28.31,0,0,0-.42-5.12,8.59,8.59,0,0,0-7.59-6.87c-1-.09-1.95-.11-2.93-.11-6.85,0-13.05-6.17-12.76-13a37.75,37.75,0,0,0-.75-6.27c-4.63,3.12-16.86,24.5-19.16,33.38l52.24,53.28c12-3.82,29.95-14.06,33.78-18.6A54.16,54.16,0,0,0,301.09,174.13Z"/></svg>