<svg id="Layer_1" data-name="Layer 1" xmlns="http://www.w3.org/2000/svg" viewBox="0 0 500 500"><defs><style>.cls-1{fill:#e66457;}.cls-2{fill:#e0b192;}.cls-3{fill:#4f2222;}.cls-4{fill:none;stroke:#efefef;stroke-miterlimit:10;stroke-width:4px;}</style></defs><title>choose-hand</title><path class="cls-1" d="M495,521.46l-6.1-9.61-.07-.11-9.16-12.45-.1-.15L466.31,477l-.06-.11-14.6-28.4a1.47,1.47,0,0,1-.1-.22l-10.3-27.9-10.32-31.24,0-.1L421.44,365a1.42,1.42,0,0,1-.07-.22L416,344.28a.36.36,0,0,1,0-.1L413,329.73a2.58,2.58,0,0,1,0-.39V317.82a2,2,0,0,1,.91-1.64l6.09-3.83a1.94,1.94,0,0,0,.58-.56l7.39-11.08L438.68,284a2.45,2.45,0,0,1,.29-.35l7.15-6.89a1.9,1.9,0,0,0,.46-.69l4.11-10.55a2.42,2.42,0,0,1,.21-.39l9.9-14.44.09-.13,6.75-8.37,6-8.16,6-8.43,5.68-7.9a2,2,0,0,0,.26-1.75L484,211.34a2,2,0,0,0-1.27-1.24l-7.39-2.27a1.93,1.93,0,0,0-1,0l-8.49,2a1.91,1.91,0,0,0-.47.18l-7.66,4.08a2.05,2.05,0,0,0-.5.39l-7.4,7.92-4.2,4.6a2.11,2.11,0,0,0-.26.35l-3.37,6-.12.18-6.09,8.47a1.94,1.94,0,0,1-.23.27l-7.45,7.2a1.92,1.92,0,0,1-1.71.51l-6.57-1.25a1.86,1.86,0,0,1-.61-.22l-8.87-5.15a1.61,1.61,0,0,1-.42-.32l-6.05-6.18a2.24,2.24,0,0,1-.27-.34l-6.68-10.88a1.71,1.71,0,0,1-.21-.48l-4.25-15a1.89,1.89,0,0,1,0-.23L389,187.82l-3.81-23.26-1.6-12.69a2,2,0,0,0-.12-.46l-6.75-17.33a2,2,0,0,0-.27-.48l-5.33-6.9a1.92,1.92,0,0,0-1.28-.74l-5.58-.73a1.89,1.89,0,0,0-1.48.42l-4.17,3.44a1.94,1.94,0,0,0-.7,1.32l-.58,6.48a2,2,0,0,0,.06.65l2.36,9.2,3,12.09c0,.1,0,.2.05.3l.94,11.28.81,15.53a1.49,1.49,0,0,0,0,.21l1.88,11.53s0,.09,0,.13l.61,6.74a2,2,0,0,1-.46,1.43l-.4.46a1.93,1.93,0,0,1-1.78.65l-2.6-.42a1.89,1.89,0,0,1-1-.45l-1.15-1a1.9,1.9,0,0,1-.62-1l-1.75-7.28-4.09-15.78-4.48-15.91L345,152.1l0-.11-4.71-13.31-.06-.2-1.86-7.83a1.92,1.92,0,0,0-.66-1.05l-4.81-3.94a1.94,1.94,0,0,0-1.52-.42l-5,.74a2,2,0,0,0-1,.48l-3.58,3.26a2,2,0,0,0-.6,1l-1,4.87a2,2,0,0,0,0,.73l1.54,8.87a2.45,2.45,0,0,0,.08.29l3.44,10.06a1.43,1.43,0,0,1,.07.28l2.15,12,3,14.83s2.31,9.93,2.44,10.33,3.11,8.14,3.5,9.15a1.42,1.42,0,0,1,.07.22l3.46,13.83a1.94,1.94,0,0,1-.77,2h0a1.94,1.94,0,0,1-2.37-.1l-1.18-1a2,2,0,0,1-.57-.82L330.54,204l-6.66-16.18-6-14.23a.49.49,0,0,0,0-.11L313,159.53l-4.35-10.93a1.94,1.94,0,0,0-1.53-1.2l-5-.72a1.89,1.89,0,0,0-1,.12l-4.68,1.89a1.94,1.94,0,0,0-.88.72L293,153.22a1.93,1.93,0,0,0-.32,1.3l.85,7.34a2.4,2.4,0,0,0,.11.48l4,10.38,3.77,8.62.06.17,5.28,15.83,4.19,11.9a.69.69,0,0,1,.05.13l7.81,17.76a2.14,2.14,0,0,1,.09.27l2.07,7.67a1.9,1.9,0,0,1-.18,1.44l-2.35,4.24a1.92,1.92,0,0,1-2,1l-.45-.07a2,2,0,0,1-1.1-.59l-4.81-5.18-.09-.11-6.62-8.24L292,212.61l-.07-.08-9.54-14.06a2,2,0,0,0-.54-.53L276,194.17a2,2,0,0,0-2-.07l-4.09,2.28a2,2,0,0,0-.93,1.23l-1.3,5.18a1.91,1.91,0,0,0,0,1.06l1.91,6a1.82,1.82,0,0,0,.27.54l8.8,12.26,11.7,18.09,12.76,18.41a2.26,2.26,0,0,1,.25.49l4.49,13.6a2.33,2.33,0,0,0,.11.28l9.39,18.23c0,.09.08.18.11.27l4.76,14.14a1.89,1.89,0,0,0,.26.51l9.18,12.77a.76.76,0,0,0,.08.11l14.29,17.25c0,.07.11.14.15.21l4.49,7.18a2.23,2.23,0,0,1,.27.72l3.88,23.82,10.19,78s0,.08,0,.12l11.39,59.38a1.11,1.11,0,0,0,.07.26l17.34,51a.49.49,0,0,1,0,.11l13,31.85a1.94,1.94,0,0,0,3,.79L494.55,524A2,2,0,0,0,495,521.46Z"/><path class="cls-1" d="M249.57,202.79l-1.29-5.18a2,2,0,0,0-.94-1.23l-4.09-2.28a1.94,1.94,0,0,0-2,.07l-5.77,3.77a1.82,1.82,0,0,0-.54.53l-9.55,14.06-.06.08-11.39,14.92-6.62,8.24-.1.11-4.8,5.18a2,2,0,0,1-1.1.59l-.45.07a1.91,1.91,0,0,1-2-1l-2.36-4.24a2,2,0,0,1-.18-1.44l2.07-7.67a2.15,2.15,0,0,1,.1-.27l7.8-17.76a.69.69,0,0,0,.05-.13l4.2-11.9,5.27-15.83a1.22,1.22,0,0,1,.07-.17l3.77-8.62,4-10.38a1.88,1.88,0,0,0,.12-.48l.84-7.34a2,2,0,0,0-.31-1.3l-2.54-3.81a2,2,0,0,0-.89-.72l-4.67-1.89a1.9,1.9,0,0,0-1-.12l-5,.72a1.91,1.91,0,0,0-1.52,1.2l-4.35,10.93-4.88,13.95a.49.49,0,0,1,0,.11l-6,14.23L186.73,204l-4.44,12.3a2.06,2.06,0,0,1-.57.82l-1.19,1a1.94,1.94,0,0,1-3.13-1.95l3.46-13.83a1.42,1.42,0,0,1,.07-.22c.38-1,3.37-8.76,3.49-9.15s2.45-10.33,2.45-10.33l3-14.83,2.15-12a1.47,1.47,0,0,1,.08-.28l3.44-10.06a2.46,2.46,0,0,0,.07-.29l1.54-8.87a1.8,1.8,0,0,0,0-.73l-1-4.87a2,2,0,0,0-.59-1l-3.59-3.26a1.94,1.94,0,0,0-1-.48l-5-.74a1.92,1.92,0,0,0-1.51.42l-4.82,3.94a1.9,1.9,0,0,0-.65,1.05l-1.87,7.83a.76.76,0,0,1-.06.2L172.34,152a.49.49,0,0,0,0,.11l-3.79,13.14L164,181.15l-4.08,15.78-1.76,7.28a1.89,1.89,0,0,1-.61,1l-1.16,1a1.82,1.82,0,0,1-1,.45l-2.6.42a1.94,1.94,0,0,1-1.78-.65l-.39-.46a1.92,1.92,0,0,1-.46-1.43l.6-6.74s0-.09,0-.13l1.87-11.53a1.52,1.52,0,0,0,0-.21l.81-15.53.94-11.28a1.57,1.57,0,0,1,0-.3l3-12.09,2.37-9.2a2,2,0,0,0,0-.65l-.58-6.48a1.89,1.89,0,0,0-.69-1.32l-4.17-3.44a1.9,1.9,0,0,0-1.49-.42l-5.58.73a2,2,0,0,0-1.28.74l-5.32,6.9a1.52,1.52,0,0,0-.27.48l-6.75,17.33a2,2,0,0,0-.12.46l-1.6,12.69-3.81,23.26-3.38,22.05a1.89,1.89,0,0,1-.05.23l-4.25,15a2.06,2.06,0,0,1-.21.48l-6.69,10.88a1.7,1.7,0,0,1-.26.34L107.35,243a1.57,1.57,0,0,1-.41.32l-8.87,5.15a1.94,1.94,0,0,1-.61.22l-6.58,1.25a1.93,1.93,0,0,1-1.71-.51l-7.45-7.2a1.86,1.86,0,0,1-.22-.27l-6.1-8.47a1.74,1.74,0,0,1-.11-.18l-3.38-6a2,2,0,0,0-.25-.35l-4.21-4.6-7.39-7.92a1.92,1.92,0,0,0-.51-.39L51.9,210a2.07,2.07,0,0,0-.47-.18l-8.49-2a2,2,0,0,0-1,0l-7.38,2.27a1.94,1.94,0,0,0-1.27,1.24L31.72,216a2,2,0,0,0,.27,1.75l5.68,7.9,6,8.43,6,8.16,6.75,8.37.09.13,9.89,14.44a1.47,1.47,0,0,1,.21.39L70.7,276.1a1.9,1.9,0,0,0,.46.69l7.15,6.89a1.87,1.87,0,0,1,.28.35l10.76,16.68,7.39,11.08a1.94,1.94,0,0,0,.58.56l6.09,3.83a2,2,0,0,1,.9,1.64v8l-.79-.18L100,340.85l2,.46-.58,2.87a.36.36,0,0,0,0,.1l-5.4,20.51a1.42,1.42,0,0,1-.07.22l-9.46,24.05,0,.1L76,420.39,65.73,448.3a1.47,1.47,0,0,1-.1.22L51,476.92,51,477,37.71,499.14l-.1.15-9.15,12.45-.08.11-6.09,9.61a1.93,1.93,0,0,0,.44,2.57l84.6,66.16a1.93,1.93,0,0,0,3-.79l13-31.85a.49.49,0,0,0,0-.11l17.35-51a2,2,0,0,0,.07-.26l11.39-59.38a.5.5,0,0,1,0-.12l10.19-78,2.07-12.7,1.59.38,3.57-15.18-1.07-.26,2.47-4,.16-.21,14.29-17.25.08-.11,9.17-12.77a1.67,1.67,0,0,0,.27-.51L199.74,292c0-.09.07-.18.12-.27l9.38-18.23a1.39,1.39,0,0,0,.12-.28l4.49-13.6a1.89,1.89,0,0,1,.25-.49l12.76-18.41,11.69-18.09,8.8-12.26a1.82,1.82,0,0,0,.27-.54l1.92-6A1.91,1.91,0,0,0,249.57,202.79Z"/><path class="cls-2" d="M486,500.21l-6.09-9.62a1,1,0,0,1-.08-.11L470.66,478a1.3,1.3,0,0,1-.1-.15l-13.25-22.11a.39.39,0,0,1-.06-.11l-14.61-28.4a2,2,0,0,1-.1-.21l-10.29-27.91-10.32-31.23a1,1,0,0,0,0-.1l-9.46-24.06a1.72,1.72,0,0,1-.07-.21L407,323s0-.08,0-.11L404,308.47a1.58,1.58,0,0,1,0-.38V296.57a1.93,1.93,0,0,1,.9-1.64l6.09-3.84a1.82,1.82,0,0,0,.58-.56l7.39-11.08,10.76-16.68a1.81,1.81,0,0,1,.28-.34l7.15-6.9a1.9,1.9,0,0,0,.46-.69l4.12-10.55a2.05,2.05,0,0,1,.2-.39l9.9-14.44.09-.12,6.75-8.38,6-8.16,6-8.43,5.68-7.9a2,2,0,0,0,.27-1.74L475,190.08a2,2,0,0,0-1.27-1.24l-7.38-2.27a2,2,0,0,0-1,0l-8.49,2a1.66,1.66,0,0,0-.47.17l-7.65,4.08a2.16,2.16,0,0,0-.51.39l-7.39,7.93-4.21,4.59a1.78,1.78,0,0,0-.25.36L433,212a1.74,1.74,0,0,1-.11.18l-6.1,8.48a1.78,1.78,0,0,1-.22.26l-7.45,7.2a2,2,0,0,1-1.71.52l-6.58-1.25a2,2,0,0,1-.61-.23l-8.87-5.14a2.15,2.15,0,0,1-.41-.32l-6.06-6.19a1.46,1.46,0,0,1-.26-.34l-6.69-10.87a2.13,2.13,0,0,1-.21-.49l-4.25-15a1.55,1.55,0,0,1-.05-.23L380,166.56l-3.81-23.26-1.6-12.68a1.83,1.83,0,0,0-.12-.46l-6.75-17.34a1.64,1.64,0,0,0-.27-.48l-5.32-6.9a2,2,0,0,0-1.28-.73l-5.58-.74a1.91,1.91,0,0,0-1.49.43l-4.17,3.43a1.91,1.91,0,0,0-.69,1.32l-.58,6.48a2.11,2.11,0,0,0,.05.66l2.37,9.19,3,12.1a1.57,1.57,0,0,1,0,.3l.94,11.27.81,15.54c0,.07,0,.14,0,.21l1.88,11.52c0,.05,0,.09,0,.14l.6,6.73a1.94,1.94,0,0,1-.46,1.44l-.39.45a2,2,0,0,1-1.78.66l-2.6-.42a2,2,0,0,1-1-.45l-1.16-1a2,2,0,0,1-.61-1l-1.76-7.29-4.08-15.77L339.76,144,336,130.84a.76.76,0,0,0,0-.11l-4.7-13.31a.66.66,0,0,1-.06-.2l-1.87-7.83a2,2,0,0,0-.65-1l-4.82-3.94a2,2,0,0,0-1.51-.42l-5,.74a2,2,0,0,0-1,.49l-3.59,3.26a1.91,1.91,0,0,0-.59,1l-1,4.87a1.79,1.79,0,0,0,0,.73l1.54,8.86c0,.1,0,.2.07.3l3.44,10a2.45,2.45,0,0,1,.08.29l2.15,12,3,14.82s2.31,9.93,2.45,10.34,3.11,8.14,3.49,9.14a1.87,1.87,0,0,1,.07.22l3.46,13.83a2,2,0,0,1-.76,2.06h0a2,2,0,0,1-2.38-.11l-1.18-1a2,2,0,0,1-.57-.81l-4.44-12.31-6.67-16.18-6-14.23a.36.36,0,0,1,0-.11L304,138.27l-4.35-10.93a1.93,1.93,0,0,0-1.52-1.2l-5-.72a2,2,0,0,0-1,.12l-4.67,1.9a1.9,1.9,0,0,0-.89.72L284,132a2,2,0,0,0-.31,1.29l.84,7.35a1.91,1.91,0,0,0,.12.47l4,10.38,3.77,8.63a.77.77,0,0,1,.07.16l5.27,15.83,4.2,11.9a.78.78,0,0,0,.05.14l7.8,17.75c0,.09.07.18.1.27l2.07,7.67a2,2,0,0,1-.18,1.45l-2.36,4.24a1.94,1.94,0,0,1-2,1l-.45-.08a2,2,0,0,1-1.1-.59L301,214.62l-.09-.1-6.62-8.25-11.39-14.91-.06-.09-9.55-14.05a2,2,0,0,0-.54-.54L267,172.91a1.94,1.94,0,0,0-2-.07l-4.09,2.29a1.93,1.93,0,0,0-.94,1.22l-1.29,5.18a1.91,1.91,0,0,0,0,1.06l1.91,6a2,2,0,0,0,.28.54l8.79,12.27,11.7,18.09,12.76,18.4a1.8,1.8,0,0,1,.25.5l4.49,13.6a1.69,1.69,0,0,0,.12.28l9.38,18.23a1.09,1.09,0,0,1,.11.27l4.76,14.14a2,2,0,0,0,.26.51l9.18,12.76a1,1,0,0,0,.08.11l14.29,17.26a.8.8,0,0,1,.15.21l4.49,7.17a1.91,1.91,0,0,1,.27.72l3.88,23.82,10.19,78a.43.43,0,0,1,0,.11L367.48,485c0,.08,0,.17.07.26l17.35,50.95a.36.36,0,0,0,0,.11l13,31.85a1.92,1.92,0,0,0,3,.79l84.6-66.16A1.92,1.92,0,0,0,486,500.21Z"/><path class="cls-2" d="M13.28,500.21l6.1-9.62.07-.11L28.61,478l.1-.15L42,455.77l.06-.11,14.6-28.4a2,2,0,0,0,.1-.21L67,399.14l10.32-31.23,0-.1,9.46-24.06a1.72,1.72,0,0,0,.07-.21L92.3,323a.52.52,0,0,0,0-.11l3-14.45a2.33,2.33,0,0,0,0-.38V296.57a1.94,1.94,0,0,0-.91-1.64l-6.09-3.84a1.82,1.82,0,0,1-.58-.56l-7.39-11.08L69.59,262.77a2.37,2.37,0,0,0-.29-.34l-7.15-6.9a1.9,1.9,0,0,1-.46-.69l-4.11-10.55a2.93,2.93,0,0,0-.21-.39l-9.9-14.44-.09-.12L40.63,221l-6-8.16-6-8.43L23,196.47a1.93,1.93,0,0,1-.26-1.74l1.54-4.65a2,2,0,0,1,1.27-1.24l7.39-2.27a1.93,1.93,0,0,1,1,0l8.49,2a1.56,1.56,0,0,1,.47.17l7.66,4.08a2.33,2.33,0,0,1,.5.39l7.4,7.93,4.2,4.59a1.83,1.83,0,0,1,.26.36l3.37,6,.12.18,6.09,8.48a1.86,1.86,0,0,0,.23.26l7.45,7.2a2,2,0,0,0,1.71.52l6.57-1.25a1.88,1.88,0,0,0,.61-.23l8.87-5.14a2.22,2.22,0,0,0,.42-.32l6.05-6.19a1.84,1.84,0,0,0,.27-.34l6.68-10.87a1.77,1.77,0,0,0,.21-.49l4.25-15a1.55,1.55,0,0,0,0-.23l3.38-22.05,3.81-23.26,1.6-12.68a1.83,1.83,0,0,1,.12-.46l6.75-17.34a2.27,2.27,0,0,1,.27-.48l5.33-6.9a1.91,1.91,0,0,1,1.28-.73L144,104a1.89,1.89,0,0,1,1.48.43l4.17,3.43a2,2,0,0,1,.7,1.32l.57,6.48a1.85,1.85,0,0,1-.05.66l-2.36,9.19-3,12.1c0,.1,0,.2-.05.3l-.94,11.27-.81,15.54a1.49,1.49,0,0,1,0,.21l-1.88,11.52c0,.05,0,.09,0,.14l-.61,6.73a2,2,0,0,0,.46,1.44l.4.45a1.94,1.94,0,0,0,1.78.66l2.6-.42a2.07,2.07,0,0,0,1-.45l1.15-1a2,2,0,0,0,.62-1l1.75-7.29L155,159.9,159.5,144l3.8-13.14,0-.11L168,117.42l.06-.2,1.86-7.83a2,2,0,0,1,.66-1l4.81-3.94a2,2,0,0,1,1.51-.42l5,.74a1.92,1.92,0,0,1,1,.49l3.59,3.26a2,2,0,0,1,.6,1l1,4.87a2,2,0,0,1,0,.73L186.6,124c0,.1,0,.2-.08.3l-3.44,10a1.37,1.37,0,0,0-.07.29l-2.15,12-3,14.82s-2.31,9.93-2.44,10.34-3.11,8.14-3.5,9.14a1.87,1.87,0,0,0-.07.22l-3.46,13.83a2,2,0,0,0,.77,2.06h0a1.94,1.94,0,0,0,2.37-.11l1.18-1a2,2,0,0,0,.57-.81l4.45-12.31,6.66-16.18,6-14.23a1.17,1.17,0,0,0,.05-.11l4.87-13.95,4.35-10.93a2,2,0,0,1,1.53-1.2l5-.72a2,2,0,0,1,1,.12l4.68,1.9a1.83,1.83,0,0,1,.88.72l2.54,3.81a1.85,1.85,0,0,1,.31,1.29l-.84,7.35a2.47,2.47,0,0,1-.11.47l-4,10.38-3.77,8.63-.06.16-5.28,15.83L197.34,188l-.06.14-7.8,17.75c0,.09-.07.18-.09.27l-2.07,7.67a2,2,0,0,0,.17,1.45l2.36,4.24a2,2,0,0,0,2,1l.45-.08a2,2,0,0,0,1.1-.59l4.81-5.18.09-.1,6.62-8.25,11.39-14.91.07-.09,9.54-14.05a2,2,0,0,1,.54-.54l5.77-3.77a1.94,1.94,0,0,1,2-.07l4.1,2.29a2,2,0,0,1,.93,1.22l1.3,5.18a1.91,1.91,0,0,1,0,1.06l-1.91,6a1.71,1.71,0,0,1-.27.54l-8.8,12.27-11.7,18.09-12.76,18.4a1.8,1.8,0,0,0-.25.5L200.35,252c0,.09-.07.19-.11.28l-9.39,18.23a1.69,1.69,0,0,0-.11.27L186,284.89a2,2,0,0,1-.26.51l-9.18,12.76a.44.44,0,0,1-.08.11l-14.29,17.26a.8.8,0,0,0-.15.21l-4.49,7.17a2.32,2.32,0,0,0-.27.72l-3.88,23.82-10.19,78s0,.07,0,.11L131.78,485a1.45,1.45,0,0,1-.07.26l-17.34,50.95a.76.76,0,0,0,0,.11l-13,31.85a1.94,1.94,0,0,1-3,.79l-84.6-66.16A1.94,1.94,0,0,1,13.28,500.21Z"/><rect class="cls-3" x="117.98" y="285.82" width="15.59" height="67.91" transform="translate(-214.29 369.04) rotate(-76.77)"/><rect class="cls-4" x="117.51" y="312.32" width="14.92" height="14.52" transform="translate(-214.73 368.1) rotate(-76.77)"/></svg>