<svg xmlns="http://www.w3.org/2000/svg" viewBox="0 0 650 771"><title>Asset 1</title><g id="Layer_2" data-name="Layer 2"><g id="Layer_1-2" data-name="Layer 1"><path d="M650,534V702c-38.23-.43-76.46-1-114.69-1.22-28.25-.14-56.92-2.77-84.67,1.06C398.75,709,347.31,719.62,295.93,730c-6.83,1.39-12.21,10-18.26,15.24,5.27,2.06,10.54,5.87,15.81,5.88,26.06,0,52.83,2.65,78-2.32C425.29,738.23,474.9,747.25,523,771H1l-1-1V214c16.3-7.88,32.56-15.85,48.91-23.63,24.92-11.84,50.15-23,74.78-35.44,27.68-13.93,53.77-31.64,82.46-42.81C255.24,93,305.6,77.11,355.81,61c45.88-14.7,91.58-31.23,138.62-40.82C545.53,9.77,598.08,6.43,650,0V153a40.76,40.76,0,0,1-5.39,2.56c-73.6,23-147.38,45.44-220.74,69.16-32.08,10.37-64.47,21-94.59,35.83-30.76,15.13-58.25,36.79-88.44,53.25-24.8,13.53-51.53,23.53-77.21,35.51-1.85.86-3.73,6.35-2.79,7.61,2.93,3.93,8.52,10.49,10.75,9.67,42-15.39,83.57-31.69,125.26-47.81,59.57-23,119.83-41.43,185.09-38.84,56,2.22,112,1.49,168.06,2.06V457c-49.45-1.63-98.9-3.54-148.36-4.76-20.37-.51-42.32-4.36-60.86,1.63-58.3,18.83-115.44,41.3-172.67,63.29-6.57,2.53-15.39,10.9-15.41,16.6-.08,17.2,8.36,28.23,28.51,23.7,8-1.81,16.46-1.82,24.6-3.24,39.73-6.91,79.25-15.37,119.2-20.65,33.3-4.4,67.11-7.28,100.66-7C567.13,527,608.56,531.35,650,534Z"/></g></g></svg>
