<svg xmlns="http://www.w3.org/2000/svg" viewBox="0 0 218 243.47"><title>left-hand_1</title><g id="Layer_2" data-name="Layer 2"><g id="Layer_1-2" data-name="Layer 1"><path d="M66.21,229.56,69.66,219v-.11l3-14.45a2.41,2.41,0,0,0,0-.38V192.59a1.92,1.92,0,0,0-.91-1.64l-6.09-3.84a1.82,1.82,0,0,1-.58-.56l-7.39-11.08L47,158.79a1.87,1.87,0,0,0-.29-.34l-7.15-6.9a2,2,0,0,1-.46-.69l-4.11-10.55a2.42,2.42,0,0,0-.21-.39l-9.9-14.44-.09-.12L18,117l-6-8.16-6-8.43L.36,92.49A1.93,1.93,0,0,1,.1,90.75L1.64,86.1a2,2,0,0,1,1.27-1.24l7.39-2.27a1.89,1.89,0,0,1,1,0l8.49,2a1.56,1.56,0,0,1,.47.17l7.66,4.08a2.33,2.33,0,0,1,.5.39l7.4,7.93,4.2,4.59a1.83,1.83,0,0,1,.26.36l3.37,6,.12.18,6.09,8.48a2.85,2.85,0,0,0,.23.26l7.45,7.2a2,2,0,0,0,1.71.52l6.57-1.25a1.88,1.88,0,0,0,.61-.23l8.87-5.14a2.59,2.59,0,0,0,.42-.32l6-6.19a2.24,2.24,0,0,0,.27-.34l6.68-10.87a1.51,1.51,0,0,0,.21-.49l4.25-15a.88.88,0,0,0,0-.23l3.38-22,3.81-23.26L102,26.7a1.83,1.83,0,0,1,.12-.46L108.84,8.9a2.27,2.27,0,0,1,.27-.48l5.33-6.9a1.87,1.87,0,0,1,1.28-.73L121.36,0a1.86,1.86,0,0,1,1.48.43L127,3.88a1.94,1.94,0,0,1,.7,1.32l.57,6.48a1.85,1.85,0,0,1-.05.66l-2.36,9.19-3,12.1a.63.63,0,0,1-.05.3l-.94,11.27-.81,15.54a.74.74,0,0,1,0,.21l-1.88,11.52v.14l-.61,6.73a2,2,0,0,0,.46,1.44l.4.45a2,2,0,0,0,1.78.66l2.6-.42a2.17,2.17,0,0,0,1-.45L126,80a2,2,0,0,0,.62-1l1.75-7.29,4-15.81,4.5-15.9,3.8-13.14v-.11l4.7-13.33.06-.2,1.86-7.83a1.94,1.94,0,0,1,.66-1L152.75.47a2,2,0,0,1,1.51-.42l5,.74a1.89,1.89,0,0,1,1,.49l3.59,3.26a2,2,0,0,1,.6,1l1,4.87a1.8,1.8,0,0,1,0,.73L164,20a.43.43,0,0,1-.08.3l-3.44,10a1.37,1.37,0,0,0-.07.29l-2.15,12-3,14.82s-2.31,9.93-2.44,10.34-3.11,8.14-3.5,9.14a1.42,1.42,0,0,0-.07.22L145.75,91a2,2,0,0,0,.77,2.06h0a2,2,0,0,0,2.37-.11l1.18-1a2,2,0,0,0,.57-.81l4.45-12.31,6.66-16.18,6-14.23a.54.54,0,0,0,.05-.11l4.87-14L177,23.39a2,2,0,0,1,1.53-1.2l5-.72a1.9,1.9,0,0,1,1,.12l4.68,1.9a1.83,1.83,0,0,1,.88.72L192.65,28a1.83,1.83,0,0,1,.31,1.29l-.84,7.35a2.47,2.47,0,0,1-.11.47l-4,10.38-3.77,8.63-.06.16L178.9,72.13,174.7,84l-.06.14-7.8,17.75c0,.09-.07.18-.09.27l-2.07,7.67a2,2,0,0,0,.17,1.45l2.36,4.24a2,2,0,0,0,2,1l.45-.08a2,2,0,0,0,1.1-.59l4.81-5.18.09-.1,6.62-8.25,11.39-14.91.07-.09,9.54-14a1.85,1.85,0,0,1,.54-.54L209.59,69a1.94,1.94,0,0,1,2-.07l4.1,2.29a2,2,0,0,1,.93,1.22l1.3,5.18a1.91,1.91,0,0,1,0,1.06l-1.91,6a1.82,1.82,0,0,1-.27.54l-8.8,12.27-11.7,18.09L182.48,134a1.8,1.8,0,0,0-.25.5L177.71,148a.82.82,0,0,1-.11.28l-9.39,18.23a1.69,1.69,0,0,0-.11.27l-4.74,14.11a2,2,0,0,1-.26.51l-9.18,12.76a.44.44,0,0,1-.08.11l-14.29,17.26a.8.8,0,0,0-.15.21l-4.49,7.17a2.23,2.23,0,0,0-.27.72l-3.88,23.82Z"/></g></g></svg>