<svg id="Layer_1" data-name="Layer 1" xmlns="http://www.w3.org/2000/svg" viewBox="0 0 500 500"><defs><style>.cls-1{fill:#e66457;}.cls-2{fill:#bc937d;}.cls-3{fill:#ddac8a;}.cls-4{fill:#efefef;}.cls-5{fill:#4f2222;}.cls-6{fill:#e6e7e8;}</style></defs><title>pitch-shift</title><path class="cls-1" d="M243.88,248.32l-2.11.7a2.18,2.18,0,0,1-1.53-.05l-1.09-.43a2.27,2.27,0,0,1-1.25-1.24l-.47-1.18a2.22,2.22,0,0,1-.09-1.37l.25-1a2.14,2.14,0,0,1,.43-.85l1.8-2.26.17-.19,2.58-2.58a1,1,0,0,1,.15-.13l3.13-2.62L246,235l5.13-3.59a2.1,2.1,0,0,1,.58-.29l4.27-1.43a2.45,2.45,0,0,1,.71-.11H270l-2.61,7.83a2.19,2.19,0,0,1-.37.69l-1.28,1.59a2.22,2.22,0,0,1-1.74.84h-6.23a2.33,2.33,0,0,0-.7.11l-5.83,2a2,2,0,0,0-.72.4l-5.93,4.93A2.14,2.14,0,0,1,243.88,248.32Z"/><path class="cls-1" d="M269.36,224.44a1.6,1.6,0,0,0-1.44-.89H265l-8.67-1.08-.09,0-1.86-.46a.72.72,0,0,0-.54.06l-6.79,3.66-.15.06-3.45,1a.7.7,0,0,1-.58-.07l-3.26-1.86a.73.73,0,0,1-.36-.51l-.47-2.32a.76.76,0,0,1,0-.15v-1.77a.73.73,0,0,1,.26-.57l3.54-3,.06,0,3.75-2.68a.27.27,0,0,1,.1-.06l5.33-2.67a.66.66,0,0,1,.2-.06l5.72-1a.74.74,0,0,1,.39,0l11.39,4.14a.77.77,0,0,1,.5.66l1.06,13.2Z"/><path class="cls-1" d="M249.79,195.48l7.93-2a1.39,1.39,0,0,1,.5,0l9.18,1a1.44,1.44,0,0,1,.75.32l6.79,5.74,7.89,6.32a1.3,1.3,0,0,1,.45.65l2.61,7.82,6,19.7,1,4.1a1.5,1.5,0,0,0,.26.52l3.47,4.46a1.57,1.57,0,0,1,.25.52l.4,1.59a1.48,1.48,0,0,1,0,.63l-1.46,6.81a1.34,1.34,0,0,0,.17,1l.9,1.5a1.87,1.87,0,0,1,.15,1.6l-1.87,5.13,0,.11-1.6,5.87a1.18,1.18,0,0,0,0,.2L291.92,282a1.55,1.55,0,0,1,0,.21l-4.33,15.14,0,.17-1.09,7-.52,4.23a1,1,0,0,0,0,.3L287,321l4.93,38.87,8.75,50.32s0,.07,0,.1l7.65,30.06,3.84,18.07,2.7,14.07a1.73,1.73,0,0,1,0,.32l-.54,14a.77.77,0,0,1,0,.15l-2,14.14a1.38,1.38,0,0,1-1.28,1.19l-67,4.75a1.4,1.4,0,0,1-1.5-1.34l-.49-12.25-.55-19.65a.41.41,0,0,1,0-.11l1.09-24,3.28-39.42L250.85,367l3.27-22.86a2.44,2.44,0,0,0,0-.27V323.77s0,0,0-.08l-.54-7.58a.28.28,0,0,0,0-.09l-1.08-8a1.35,1.35,0,0,0-.06-.34l-2.09-6.25a1.51,1.51,0,0,0-.13-.29l-4.3-7-4.81-8.56a1.35,1.35,0,0,1-.16-.42l-2.11-11.08a1.33,1.33,0,0,1,0-.4l1.06-10.6a2.33,2.33,0,0,1,.05-.28l3.23-10.2,0-.13,1.61-7.53,0-.14,1.07-9.66a1,1,0,0,0,0-.25l-.53-8v-10.3a1.36,1.36,0,0,1,0-.29l1.61-7.52,2.09-7.85a1.37,1.37,0,0,1,.36-.63l3.25-3.24a1.44,1.44,0,0,1,.77-.4l6-.92a1.36,1.36,0,0,1,1.14.33l3.51,3.07a1.38,1.38,0,0,1,.46.82l1,6s0,.09,0,.14l.53,9.08a1.08,1.08,0,0,1,0,.31L264,228.36a1.79,1.79,0,0,0,0,.23V236a1.64,1.64,0,0,0,0,.23l.15.9a1.4,1.4,0,0,0,2.22.89h0a1.41,1.41,0,0,0,.48-.67L270,228a1.6,1.6,0,0,0,0-.21l.49-3a1.29,1.29,0,0,0,0-.44L269,214.15a1.35,1.35,0,0,0-.39-.78l-1.86-1.87-7.2-7.19a1.36,1.36,0,0,0-1.13-.4l-4.74.47h-3.54a1.4,1.4,0,0,1-1.28-.83l-1.53-3.45a1.39,1.39,0,0,1,.06-1.27l1.54-2.69A1.38,1.38,0,0,1,249.79,195.48Z"/><rect class="cls-1" x="256.87" y="139.79" width="6.02" height="59.67" rx="1.78"/><path class="cls-1" d="M247.82,205.77l1.25-4.69a2,2,0,0,1,.52-.91l3-3a2.07,2.07,0,0,1,1.13-.57l5.52-.85a2.06,2.06,0,0,1,1.65.48L264,199a2.07,2.07,0,0,1,.67,1.2l.63,3.8a2,2,0,0,1-1.71,2.35l-13.5,2A2,2,0,0,1,247.82,205.77Z"/><rect class="cls-1" x="247.28" y="321.19" width="11.96" height="2.1" transform="translate(554.57 44.4) rotate(85.48)"/><rect class="cls-1" x="276.26" y="317" width="25.34" height="4.53" transform="translate(575.8 -1.85) rotate(83.92)"/><rect class="cls-1" x="265.79" y="303.03" width="10.15" height="35.64" transform="translate(569.4 25.56) rotate(85.48)"/><path class="cls-2" d="M228.56,255.89l-2.11.7a2.24,2.24,0,0,1-1.53,0l-1.09-.44a2.22,2.22,0,0,1-1.24-1.24l-.48-1.18a2.3,2.3,0,0,1-.09-1.37l.25-1a2.28,2.28,0,0,1,.43-.85l1.81-2.26a1.46,1.46,0,0,1,.16-.19l2.58-2.57.15-.14,3.13-2.61.15-.12,5.13-3.59a2.42,2.42,0,0,1,.58-.29l4.27-1.42a2.16,2.16,0,0,1,.71-.12h13.32L252.08,245a2.14,2.14,0,0,1-.37.68l-1.27,1.59a2.25,2.25,0,0,1-1.75.84h-6.23a2.1,2.1,0,0,0-.7.12l-5.83,1.94a2.22,2.22,0,0,0-.72.4l-5.92,4.94A2.47,2.47,0,0,1,228.56,255.89Z"/><path class="cls-2" d="M254,232a1.6,1.6,0,0,0-1.44-.89h-2.88L241.05,230l-.09,0-1.86-.46a.73.73,0,0,0-.54.07l-6.79,3.65-.15.06-3.45,1a.79.79,0,0,1-.58-.07l-3.25-1.86a.74.74,0,0,1-.37-.51l-.47-2.33a.76.76,0,0,1,0-.15v-1.76a.77.77,0,0,1,.26-.58l3.54-3,.06-.05,3.75-2.68.11-.06,5.32-2.66a.48.48,0,0,1,.2-.07l5.72-1a.85.85,0,0,1,.39,0l11.4,4.15a.75.75,0,0,1,.49.65l1.06,13.2Z"/><path class="cls-3" d="M234.47,203.06l7.94-2a1.34,1.34,0,0,1,.49,0l9.18,1a1.37,1.37,0,0,1,.75.32l6.79,5.75,7.89,6.31a1.35,1.35,0,0,1,.45.65l2.61,7.82,6,19.71,1,4.09a1.41,1.41,0,0,0,.26.52l3.47,4.46a1.39,1.39,0,0,1,.25.52l.4,1.59a1.49,1.49,0,0,1,0,.63l-1.46,6.81a1.33,1.33,0,0,0,.17,1l.9,1.5a1.88,1.88,0,0,1,.15,1.6l-1.86,5.13a.76.76,0,0,0,0,.11l-1.6,5.87a1.42,1.42,0,0,0,0,.2l-1.62,12.93a.78.78,0,0,1,0,.21l-4.32,15.14a1.36,1.36,0,0,0,0,.17l-1.08,7-.53,4.23a1.51,1.51,0,0,0,0,.3l1.08,11.9,4.93,38.87,8.75,50.31a.36.36,0,0,1,0,.1L293,447.91,296.85,466l2.7,14.08a1.63,1.63,0,0,1,0,.31l-.54,14c0,.05,0,.1,0,.15l-2,14.14a1.41,1.41,0,0,1-1.29,1.2l-67,4.74a1.4,1.4,0,0,1-1.5-1.34L226.77,501l-.54-19.66v-.1l1.09-24,3.28-39.42,4.93-43.25,3.27-22.85a2.62,2.62,0,0,0,0-.28V331.27l-.55-7.58v-.1l-1.08-8a1.36,1.36,0,0,0-.07-.35L235,309a1.55,1.55,0,0,0-.14-.29l-4.3-7-4.81-8.56a1.24,1.24,0,0,1-.15-.42l-2.11-11.07a1.13,1.13,0,0,1,0-.41l1.06-10.6a1.4,1.4,0,0,1,.06-.28l3.22-10.2,0-.13,1.62-7.53s0-.09,0-.14l1.07-9.66a2,2,0,0,0,0-.25l-.54-8v-10.3a1.36,1.36,0,0,1,0-.29l1.61-7.52,2.09-7.85a1.44,1.44,0,0,1,.37-.63l3.24-3.24a1.36,1.36,0,0,1,.77-.39l6-.93a1.41,1.41,0,0,1,1.13.33l3.51,3.07a1.39,1.39,0,0,1,.46.83l1,6c0,.05,0,.1,0,.15l.53,9.07a1.58,1.58,0,0,1,0,.31l-2.15,12.87a2,2,0,0,0,0,.23v7.44a2,2,0,0,0,0,.23l.15.9a1.4,1.4,0,0,0,2.22.89h0a1.39,1.39,0,0,0,.49-.68l3.11-9.34a1.6,1.6,0,0,0,.05-.21l.49-3a1.24,1.24,0,0,0,0-.43l-1.54-10.28a1.47,1.47,0,0,0-.4-.78l-1.86-1.86-2.92-2.92-4.28-4.28a1.38,1.38,0,0,0-1.13-.4l-4.74.47H234.8a1.42,1.42,0,0,1-1.28-.83L232,207.68a1.4,1.4,0,0,1,.06-1.26l1.54-2.7A1.4,1.4,0,0,1,234.47,203.06Z"/><rect x="241.55" y="147.36" width="6.02" height="59.67" rx="1.78"/><path class="cls-3" d="M232.5,213.35l1.25-4.69a1.94,1.94,0,0,1,.53-.92l3-3a2.05,2.05,0,0,1,1.13-.58l5.52-.85a2.05,2.05,0,0,1,1.65.48l3.12,2.73a2.1,2.1,0,0,1,.67,1.2l.63,3.8a2,2,0,0,1-1.71,2.35l-13.5,2A2,2,0,0,1,232.5,213.35Z"/><rect class="cls-4" x="231.96" y="328.76" width="11.96" height="2.1" transform="matrix(0.08, 1, -1, 0.08, 548, 66.64)"/><rect class="cls-4" x="260.94" y="324.58" width="25.34" height="4.53" transform="translate(569.63 20.15) rotate(83.92)"/><rect class="cls-5" x="250.48" y="310.6" width="10.15" height="35.64" transform="translate(562.84 47.81) rotate(85.48)"/><path class="cls-6" d="M363.47,127.67c-.44-4.81-.8-9.62-1.18-14.43q-1.6-20.42-3.19-40.83A15.46,15.46,0,0,0,358,66.64l-2.2-1.88a15,15,0,0,0-2.79-.45,6.51,6.51,0,0,0-5,2.53c-3.41,4.07-6.88,8.09-10.32,12.12-.45.52-.89,1-1.41,1.65a13.77,13.77,0,0,1-3.31-2.85A103.36,103.36,0,0,0,319.57,66.4c-2.19-1.55-4.39-3.08-6.62-4.57a76.7,76.7,0,0,0-7.11-4.16A118.63,118.63,0,0,0,285.45,49a116.54,116.54,0,0,0-26.29-5.14,110.92,110.92,0,0,0-18-.1c-4.86.43-9.72,1.12-14.52,2a106.79,106.79,0,0,0-27.54,9.14,99.55,99.55,0,0,0-12.61,7c-2.22,1.51-4.41,3.05-6.59,4.62A103.41,103.41,0,0,0,166.68,78a14.1,14.1,0,0,1-3.28,2.87L162,79.22c-3.47-4-7-8-10.42-12a6.47,6.47,0,0,0-5-2.49,15.07,15.07,0,0,0-2.79.47l-2.19,1.9a15.63,15.63,0,0,0-1.11,5.78q-1.41,20.43-2.87,40.85c-.34,4.81-.67,9.63-1.06,14.44a6.42,6.42,0,0,0,1.42,5,5.86,5.86,0,0,0,4.25,2.23c9.07.66,18.13,1.41,27.2,2.09q15,1.13,29.91,2.2a15.34,15.34,0,0,0,1.65.09c2.6-.13,4.68-1.14,5.76-3.65a5.81,5.81,0,0,0-1.12-6.53q-5.94-6.88-11.91-13.76c-.5-.56-1-1.13-1.61-1.85l1.76-2.08A70.56,70.56,0,0,1,205.58,101h0C210.52,97.4,216,95,221.71,92.6a77.68,77.68,0,0,1,16.44-4.76A75.33,75.33,0,0,1,280,92.92a69.41,69.41,0,0,1,13.25,7.53A71,71,0,0,1,306,111.87l1.78,2.06-1.6,1.87q-5.9,6.92-11.81,13.85a5.81,5.81,0,0,0-1.07,6.53c1.11,2.5,3.19,3.5,5.79,3.6a13,13,0,0,0,1.65-.1q15-1.22,29.89-2.42c9.07-.76,18.13-1.57,27.19-2.31a5.89,5.89,0,0,0,4.24-2.26A6.47,6.47,0,0,0,363.47,127.67Z"/></svg>