<svg id="Layer_1" data-name="Layer 1" xmlns="http://www.w3.org/2000/svg" viewBox="0 0 500 500"><defs><style>.cls-1{fill:#e66457;}.cls-2{fill:#ddac8a;}.cls-3{fill:#e0b192;}.cls-4{fill:#e6e7e8;}.cls-5{fill:#4f2222;}</style></defs><title>volume-sweep</title><polygon class="cls-1" points="311.19 -14.87 309.89 31.48 309.89 56.46 313.56 78.43 322.87 90.85 331.95 114.86 334.88 134.97 339.42 164.49 352.61 198.89 252.48 221.91 235.96 203.92 223.93 192.72 211.84 165.14 204.91 130.09 206.21 125.73 204.46 113.23 201.22 75.28 199.27 -14.87 311.19 -14.87"/><path class="cls-1" d="M211.84,340.83V345a9.25,9.25,0,0,0,2.87,6.69l7.11,6.76,10.42,9a9.26,9.26,0,0,1,1,1h0a9.22,9.22,0,0,1,1.47,9.57l-.63,1.51a9.2,9.2,0,0,0,.49,8.16l1.33,2.34a9.26,9.26,0,0,0,6.71,4.56l1.86.26a9.22,9.22,0,0,0,4.27-.39l8.77-3a9.29,9.29,0,0,0,3.56-2.21l.25-.26a9.27,9.27,0,0,1,6.3-2.7L282,386a9.12,9.12,0,0,0,2.32-.36l8.12-2.34a8.91,8.91,0,0,1,3.44-.32l7.05.67a9.2,9.2,0,0,0,6.82-2.12l1.32-1.11a9.13,9.13,0,0,1,4.09-2l8.27-1.69a9.33,9.33,0,0,0,2.57-.94l4.93-2.69a9.18,9.18,0,0,0,3.12-2.79l5.47-7.76a9.07,9.07,0,0,0,1.27-2.57l2.74-8.81a9.18,9.18,0,0,1,.59-1.45l6.21-12.2,4.49-9.57a9.3,9.3,0,0,0,.87-3.92v-.33a9.23,9.23,0,0,1,2-5.73l8.23-10.37,6-7.61a9.27,9.27,0,0,0,1.59-3.09l1.17-4a9.22,9.22,0,0,0,0-5.18l-.77-2.67a9.08,9.08,0,0,1-.14-4.6l1.26-5.61a9.05,9.05,0,0,0,.08-3.63l-1.5-8.49a9.15,9.15,0,0,0-1.61-3.81l-5.15-7.12A9.2,9.2,0,0,1,365,246l.52-12.45a9,9,0,0,0-.42-3.17L361.2,218a8.92,8.92,0,0,0-.52-1.29l-6.83-13.88a9.15,9.15,0,0,1-.64-1.7c-.37-1.39-1.12-4.21-1.8-6.74l2-.82c3.35-1.33.72-15.86-5.88-32.45s-14.65-29-18-27.64l-5.27,2.1c-2.61,1-1.59,10.1,2.11,21.91l-4.27,1.25-10.26-9.55a9.6,9.6,0,0,0-2.28-1.56l-16.93-8.15a9.43,9.43,0,0,0-3.19-.88l-22.5-2a9.23,9.23,0,0,0-6.07,1.61l-16.74,11.61a9.19,9.19,0,0,0-3,3.42l-8.14,16.09a9.19,9.19,0,0,0-1,4.28l.2,16a9.18,9.18,0,0,0,.34,2.38L236,204.1a9.27,9.27,0,0,0,2.36,4l5,5a9.15,9.15,0,0,0,1.92,1.47l10.49,6.05v104l-4.66-2.83a9,9,0,0,0-1.69-.8L235,315.77a9.24,9.24,0,0,1-1.87-.91l-5-3.23a9.21,9.21,0,0,0-6.67-1.3l-1.9.35a9.22,9.22,0,0,0-7.52,8.61l0,.65a9.29,9.29,0,0,0,.51,3.51l1.57,4.48a9.24,9.24,0,0,1-.35,6.95l-.95,2A9.29,9.29,0,0,0,211.84,340.83Zm68.38-9.32a9.21,9.21,0,0,1-5.82,2.5V247.16l10.68,38.31a9.26,9.26,0,0,0,.93,2.2L295,303a9.23,9.23,0,0,1,0,9.27l-5.89,10.24a9.15,9.15,0,0,1-1.66,2.1Z"/><polygon class="cls-2" points="297.9 67.97 292.71 36.82 292.71 11.84 294.01 -1.87 182.09 -1.87 184.04 55.64 187.28 93.59 189.51 109.57 297.9 67.97"/><polygon class="cls-3" points="335.43 179.25 322.24 144.85 317.69 115.33 314.77 95.22 305.69 71.21 294.01 55.64 276.41 42.34 257.22 42.34 230.43 51.74 215.5 66.02 194.66 87.11 187.73 110.45 194.66 145.5 206.75 173.07 218.78 184.28 235.29 202.27 335.43 179.25"/><path class="cls-4" d="M307.13,116c-3.35,1.33-.72,15.86,5.87,32.45s14.65,29,18,27.64l5.28-2.1c3.35-1.33.72-15.86-5.88-32.45s-14.65-29-18-27.64Z"/><polygon class="cls-5" points="316.43 135.78 278.49 146.86 285.72 169.86 324.52 158.93 316.43 135.78"/><path class="cls-2" d="M268.83,268l9,15.35a9.2,9.2,0,0,1,0,9.27L272,302.88a9.15,9.15,0,0,1-1.66,2.1L263,311.87a9.25,9.25,0,0,1-11.14,1.18l-18-10.94a8.67,8.67,0,0,0-1.68-.81l-14.43-5.17a9.24,9.24,0,0,1-1.87-.91l-5-3.23a9.21,9.21,0,0,0-6.67-1.3l-1.9.35a9.23,9.23,0,0,0-7.53,8.61l0,.65a9.1,9.1,0,0,0,.51,3.51l1.57,4.48a9.24,9.24,0,0,1-.35,6.95l-.95,2a9.25,9.25,0,0,0-.87,3.9v4.22a9.21,9.21,0,0,0,2.87,6.68l7.11,6.77,10.41,9a8.5,8.5,0,0,1,1,1h0a9.22,9.22,0,0,1,1.47,9.57l-.64,1.5a9.29,9.29,0,0,0,.49,8.17l1.34,2.34a9.26,9.26,0,0,0,6.71,4.56l1.86.26a9.1,9.1,0,0,0,4.27-.4l8.77-3a9.31,9.31,0,0,0,3.56-2.22l.25-.25a9.26,9.26,0,0,1,6.29-2.7l14.35-.36a9.2,9.2,0,0,0,2.33-.36l8.12-2.35a9.27,9.27,0,0,1,3.44-.32l7.05.68a9.24,9.24,0,0,0,6.82-2.12l1.32-1.11a9.25,9.25,0,0,1,4.09-2l8.27-1.68a9.33,9.33,0,0,0,2.57-.94l4.93-2.69a9.18,9.18,0,0,0,3.12-2.79l5.47-7.76a9.34,9.34,0,0,0,1.27-2.57l2.74-8.82a8.55,8.55,0,0,1,.59-1.44l6.21-12.2,4.48-9.58a9.11,9.11,0,0,0,.87-3.91v-.33a9.24,9.24,0,0,1,2-5.73L348.67,288l6-7.61a9.22,9.22,0,0,0,1.59-3.08l1.17-4a9.22,9.22,0,0,0,0-5.18l-.77-2.67a9.2,9.2,0,0,1-.15-4.6l1.27-5.61a9.43,9.43,0,0,0,.08-3.63l-1.5-8.5a9.16,9.16,0,0,0-1.61-3.8l-5.15-7.12a9.2,9.2,0,0,1-1.74-5.8l.52-12.45a9.2,9.2,0,0,0-.42-3.17L344,198.39a10.23,10.23,0,0,0-.52-1.29l-6.83-13.88a9.15,9.15,0,0,1-.64-1.7c-.73-2.77-3-11.16-3.17-11.77s-15.46-18.41-17.92-21.27a8.22,8.22,0,0,0-.71-.74l-19.52-18.16a9.6,9.6,0,0,0-2.28-1.56l-16.94-8.15a9.3,9.3,0,0,0-3.19-.88l-22.49-2a9.22,9.22,0,0,0-6.07,1.61L227,130.22a9.19,9.19,0,0,0-3,3.42l-8.14,16.08a9.39,9.39,0,0,0-1,4.29l.2,16a9.21,9.21,0,0,0,.35,2.39l3.4,12.08a9.16,9.16,0,0,0,2.35,4l5,5a9.15,9.15,0,0,0,1.92,1.47l12,6.93a9.08,9.08,0,0,1,2.26,1.83l10.47,11.65a9.21,9.21,0,0,1,2,3.69l13,46.8A9,9,0,0,0,268.83,268Z"/><rect x="238.56" y="163.5" width="18.65" height="180.05" rx="6.02"/><path class="cls-4" d="M132.06,405.15c.43,4.81.8,9.62,1.17,14.43q1.61,20.42,3.19,40.83a15.38,15.38,0,0,0,1.15,5.77l2.2,1.88a15.15,15.15,0,0,0,2.79.45,6.51,6.51,0,0,0,5-2.53c3.42-4.06,6.88-8.08,10.33-12.12l1.41-1.65a14.4,14.4,0,0,1,3.31,2.85A101.83,101.83,0,0,0,176,466.42c2.19,1.55,4.4,3.08,6.63,4.57a75.26,75.26,0,0,0,7.1,4.16,118.18,118.18,0,0,0,20.39,8.7,116.52,116.52,0,0,0,26.3,5.14,109.67,109.67,0,0,0,17.94.1c4.87-.42,9.72-1.12,14.52-2a106.86,106.86,0,0,0,27.55-9.14,100.13,100.13,0,0,0,12.6-7q3.33-2.26,6.59-4.62a103.44,103.44,0,0,0,13.27-11.46,14,14,0,0,1,3.29-2.88l1.42,1.64c3.48,4,7,8,10.42,12a6.47,6.47,0,0,0,5,2.49,14.18,14.18,0,0,0,2.78-.47l2.19-1.9a15.44,15.44,0,0,0,1.11-5.78q1.41-20.43,2.87-40.85c.34-4.81.67-9.63,1.07-14.44a6.51,6.51,0,0,0-1.42-5,5.9,5.9,0,0,0-4.25-2.23c-9.07-.66-18.14-1.41-27.21-2.09q-15-1.12-29.91-2.19a13,13,0,0,0-1.65-.09c-2.6.12-4.67,1.14-5.76,3.64a5.82,5.82,0,0,0,1.12,6.53L301.84,417l1.6,1.85c-.63.76-1.19,1.42-1.75,2.08a70.62,70.62,0,0,1-11.75,10.84h0c-4.94,3.64-10.42,6.09-16.13,8.44A77.68,77.68,0,0,1,257.37,445a73.63,73.63,0,0,1-17.3.83,74.78,74.78,0,0,1-24.59-5.91,69.41,69.41,0,0,1-13.25-7.53A71.24,71.24,0,0,1,189.49,421l-1.78-2.07,1.6-1.86q5.91-6.93,11.81-13.86a5.81,5.81,0,0,0,1.07-6.53c-1.11-2.5-3.19-3.49-5.79-3.6a15.22,15.22,0,0,0-1.65.1c-10,.81-19.93,1.6-29.89,2.43-9.07.75-18.13,1.56-27.19,2.3a5.85,5.85,0,0,0-4.23,2.26A6.44,6.44,0,0,0,132.06,405.15Z"/></svg>