<svg id="Layer_1" data-name="Layer 1" xmlns="http://www.w3.org/2000/svg" xmlns:xlink="http://www.w3.org/1999/xlink" viewBox="0 0 500 500"><defs><style>.cls-1{fill:#e66457;}.cls-2{font-size:36.53px;font-family:NovelMonoProCnd-Bold, Novel Mono Pro Cnd;font-weight:700;}.cls-2,.cls-4{fill:#fff;}.cls-3{fill:url(#linear-gradient);}.cls-4{stroke:#000;stroke-linecap:round;stroke-linejoin:round;stroke-width:9px;}.cls-5{fill:#ddac8a;}</style><linearGradient id="linear-gradient" x1="120.13" y1="-128.65" x2="120.13" y2="-368.45" gradientTransform="translate(102.98 482.77) scale(1 0.9)" gradientUnits="userSpaceOnUse"><stop offset="0" stop-color="lime"/><stop offset="0.36" stop-color="#fcee21"/><stop offset="0.69" stop-color="#f7931e"/><stop offset="1" stop-color="red"/></linearGradient></defs><title>volume</title><path class="cls-1" d="M397.72,510.78l-7.6-35.94a4.38,4.38,0,0,1-.05-1.4L400,396.79a4.17,4.17,0,0,0-.06-1.41L387.3,336.5a4.49,4.49,0,0,1-.09-1l2.52-65.2a4.39,4.39,0,0,0-.08-1l-6.06-29a4.13,4.13,0,0,1,.4-2.8L391.63,223a4.17,4.17,0,0,0,0-3.9l-5.88-11.18a4.17,4.17,0,0,0-3.77-2.23l-9.1.19-5.25.1L383,152.29a24.29,24.29,0,0,0-16.65-30L233.22,84.06a24.3,24.3,0,0,0-30.05,16.65L163.81,238l-13,1.44a4.2,4.2,0,0,0-2,.77l-23.1,16.69a4.25,4.25,0,0,0-1.41,1.76l-5.77,13.73a4.17,4.17,0,0,0,1.2,4.84l7.7,6.33a4.18,4.18,0,0,1,.12,6.34l-9.28,8.28a4.4,4.4,0,0,0-.8,1l-8.37,14a4.22,4.22,0,0,0-.56,2.6l2,17.87a4.16,4.16,0,0,0,2.07,3.16l2.4,1.37a4.17,4.17,0,0,1,.37,7l-17.93,13a4.15,4.15,0,0,0-1.73,3.46l.3,15a5.63,5.63,0,0,0,0,.59l2,11.9a4.14,4.14,0,0,1-.43,2.63l-7.75,14.63a4.2,4.2,0,0,0-.09,3.72l6.8,14.49a4.21,4.21,0,0,0,1.34,1.62l12.69,9.12a4.19,4.19,0,0,0,3,.75,24.25,24.25,0,0,0,15.11,12.64l48.82,14a4.18,4.18,0,0,0-1.79,3.51l.06,3.05a4.24,4.24,0,0,0,.93,2.55l12.7,15.66a4.09,4.09,0,0,1,.6,1l11.85,28a5.07,5.07,0,0,0,.46.82l17.53,24.25a5.27,5.27,0,0,0,.49.57l13.05,12.53a4.27,4.27,0,0,0,1.32.85l11.63,4.71a4.1,4.1,0,0,0,1.55.29l53.63,168.83,150.64-47.2Z"/><path d="M61.81,146H392.55a24.29,24.29,0,0,1,24.29,24.29V333.13a0,0,0,0,1,0,0h-355a24.29,24.29,0,0,1-24.29-24.29V170.31A24.29,24.29,0,0,1,61.81,146Z" transform="translate(520.09 87.24) rotate(106)"/><text class="cls-2" transform="translate(199.21 118.43) rotate(16)">Volume</text><rect class="cls-3" x="163.85" y="150.76" width="118.51" height="216.08" transform="translate(79.98 -51.47) rotate(16)"/><path d="M192.08,135.42,131.71,346l120.06,34.43,60.37-210.53ZM245.7,375.51,139.44,345l1.33-4.63L247,370.88Zm2.73-9.53L142.17,335.51l1.33-4.63,106.26,30.47Zm2.73-9.53L144.9,326l1.33-4.63,106.26,30.47Zm2.73-9.53L147.64,316.45l1.32-4.63,106.26,30.47Zm2.74-9.53L150.37,306.92l1.33-4.63L258,332.76Zm2.73-9.53L153.1,297.4l1.33-4.64,106.26,30.47Zm2.73-9.53L155.83,287.87l1.33-4.64L263.42,313.7Zm2.73-9.53L158.57,278.34l1.32-4.64,106.26,30.47Zm2.74-9.53L161.3,268.81l1.33-4.64,106.25,30.47Zm2.73-9.52L164,259.28l1.33-4.63,106.26,30.46Zm2.73-9.53L166.76,249.75l1.33-4.63,106.26,30.46Zm2.73-9.53L169.5,240.22l1.32-4.63,106.26,30.46Zm2.74-9.53L172.23,230.69l1.33-4.63,106.26,30.46Zm2.73-9.53L175,221.16l1.33-4.63L282.55,247ZM284,242.1,177.69,211.63,179,207l106.26,30.47Zm2.74-9.53L180.43,202.1l1.33-4.63L288,227.94Zm2.73-9.53L183.16,192.57l1.33-4.63,106.26,30.47Zm2.73-9.53L185.89,183l1.33-4.63,106.26,30.47Zm2.73-9.53L188.62,173.51l1.33-4.63,106.26,30.47Zm2.74-9.53L191.36,164l1.33-4.63,106.25,30.47Zm2.73-9.53L194.09,154.45l1.33-4.63,106.26,30.47Zm2.73-9.53L196.82,144.92l1.33-4.63,106.26,30.47Z"/><polyline class="cls-4" points="287.44 226.67 182.91 196.7 250.16 159.42 286.71 225.35"/><path class="cls-5" d="M146.19,191.8l-15.73,1.75a4.15,4.15,0,0,0-2,.76L105.37,211a4.2,4.2,0,0,0-1.4,1.77L98.2,226.49a4.18,4.18,0,0,0,1.19,4.84l7.7,6.34a4.16,4.16,0,0,1,.13,6.33l-9.28,8.28a4.46,4.46,0,0,0-.8,1l-8.37,14a4.14,4.14,0,0,0-.56,2.6l2,17.86a4.18,4.18,0,0,0,2.08,3.16l2.4,1.37a4.17,4.17,0,0,1,.36,7l-17.93,13a4.16,4.16,0,0,0-1.72,3.46l.3,15a3.81,3.81,0,0,0,0,.59l2,11.91a4.17,4.17,0,0,1-.43,2.62L69.5,360.46a4.2,4.2,0,0,0-.09,3.72l6.79,14.49a4.25,4.25,0,0,0,1.35,1.62l12.69,9.13a4.19,4.19,0,0,0,4.58.19l10.89-6.52a4,4,0,0,0,.43-.29l6.43-5a4.14,4.14,0,0,0,1.41-2l2.51-8.05a4.16,4.16,0,0,0-1.1-4.24l-1.35-1.3a4.17,4.17,0,0,1-.36-5.61l6.62-8.28a4.41,4.41,0,0,0,.73-1.37l3.22-10.36a4.17,4.17,0,0,0,.18-1.32l-.32-15.85a4.17,4.17,0,0,0-.47-1.86l-1.76-3.34a4.16,4.16,0,0,1,1.55-5.51l9.6-5.75a4.13,4.13,0,0,0,.87-.69l6.31-6.57a4.24,4.24,0,0,0,1.12-2.29l1.47-10.05a5.32,5.32,0,0,0,0-.69l-.37-18.43a4.27,4.27,0,0,0-.24-1.32l-5.49-15.41a4.17,4.17,0,0,0-1.68-2.11h0a4.17,4.17,0,0,1-.49-6.67l6.94-6a3.68,3.68,0,0,0,.57-.61l6.64-8.64a4.16,4.16,0,0,0,.83-2l1.5-12.23c0-.2,0-.4,0-.59l-.25-12.65A4.17,4.17,0,0,0,146.19,191.8Z"/><path class="cls-5" d="M431.79,636.2,377.38,464.9,369.78,429a4.11,4.11,0,0,1,0-1.4l9.92-76.65a4.17,4.17,0,0,0-.06-1.41L367,290.62a4.52,4.52,0,0,1-.09-1l2.52-65.2a4.27,4.27,0,0,0-.09-1l-6.05-29a4.15,4.15,0,0,1,.4-2.81l7.64-14.43a4.18,4.18,0,0,0,0-3.89L365.42,162a4.17,4.17,0,0,0-3.77-2.23l-9.1.18-13.34.27a4.17,4.17,0,0,0-3.43,1.93L325.66,178,315,196.72a4.19,4.19,0,0,0-.55,2.16l.45,22.19.62,30.68a4.68,4.68,0,0,1-.09.91l-6.74,33.54a4.23,4.23,0,0,1-1.08,2.07L291.44,305a3.38,3.38,0,0,0-.37.46l-10.93,15.19a4.6,4.6,0,0,0-.44.78l-9,20.84a4.34,4.34,0,0,0-.24.72l-7,30.72c0,.13-.05.26-.07.39l-5,38.7,0,.28-4.16,24.44a4.17,4.17,0,0,1-5,3.82l-88.81-25.25a4.17,4.17,0,0,0-5,4.17l.06,3.06a4.21,4.21,0,0,0,.93,2.54L169,441.57a3.91,3.91,0,0,1,.6,1l11.85,28a4.41,4.41,0,0,0,.46.82l17.53,24.25a3.35,3.35,0,0,0,.49.57l13,12.53a4.28,4.28,0,0,0,1.33.86l11.62,4.7a4,4,0,0,0,1.56.3L281.15,683.4Z"/></svg>